<!-- Generated by IcoMoon.io -->
<svg version="1.1" xmlns="http://www.w3.org/2000/svg" width="57" height="32" viewBox="0 0 57 32">
<title>client-4</title>
<path fill="#bdbdbd" d="M10.973 8.386h-0.002c-1.535 0-2.779 1.105-2.779 2.47v0.001c0 1.364 1.244 2.47 2.779 2.47h0.002c1.535 0 2.779-1.106 2.779-2.47v-0.001c0-1.364-1.244-2.47-2.779-2.47zM31.485 7.597c-0.004-1.894-0.853-3.711-2.36-5.050s-3.55-2.094-5.681-2.099c-2.132 0.003-4.177 0.758-5.684 2.097s-2.357 3.156-2.362 5.051v10.447s16.086-1.592 16.088-10.445v-0.002zM2.56 21.472c0.004 1.318 0.595 2.581 1.644 3.514s2.47 1.457 3.953 1.461c1.483-0.004 2.904-0.529 3.953-1.461s1.64-2.195 1.644-3.512v-7.269s-11.192 1.109-11.192 7.268zM8.156 22.774c-0.29 0-0.573-0.076-0.814-0.22-0.234-0.138-0.42-0.337-0.536-0.576l-0.003-0.008c-0.070-0.146-0.111-0.317-0.111-0.498 0-0.090 0.010-0.178 0.030-0.262l-0.002 0.008c0.056-0.253 0.196-0.485 0.401-0.667s0.466-0.307 0.75-0.356c0.086-0.016 0.185-0.025 0.286-0.025 0.201 0 0.394 0.036 0.572 0.103l-0.011-0.004c0.268 0.099 0.497 0.266 0.658 0.48s0.247 0.466 0.247 0.723c0.001 0.172-0.036 0.342-0.11 0.5-0.079 0.166-0.186 0.307-0.316 0.422l-0.001 0.001c-0.136 0.122-0.298 0.218-0.476 0.284-0.167 0.063-0.36 0.1-0.561 0.1-0 0-0.001 0-0.001 0h0v-0.005zM18.387 20.442v2.73h-0.563v-2.731h0.563zM19.475 21.609v0.438h-1.242v-0.438h1.242zM19.606 20.442v0.441h-1.372v-0.441h1.373zM22.175 21.744v0.129c0 0.007 0 0.016 0 0.024 0 0.191-0.031 0.375-0.088 0.546l0.004-0.012c-0.054 0.163-0.135 0.303-0.239 0.423l0.001-0.002c-0.102 0.115-0.225 0.203-0.367 0.264-0.141 0.061-0.298 0.092-0.47 0.092-0.004 0-0.009 0-0.014 0-0.165 0-0.322-0.034-0.465-0.095l0.008 0.003c-0.145-0.063-0.267-0.153-0.366-0.263l-0.001-0.001c-0.104-0.119-0.187-0.259-0.239-0.414l-0.003-0.009c-0.054-0.159-0.085-0.343-0.085-0.534 0-0.009 0-0.017 0-0.025v0.001-0.13c0-0.209 0.028-0.395 0.084-0.559s0.136-0.305 0.238-0.422c0.1-0.113 0.223-0.203 0.361-0.264l0.007-0.003c0.142-0.061 0.299-0.092 0.47-0.092 0.173 0 0.329 0.030 0.47 0.092 0.143 0.061 0.265 0.15 0.367 0.266 0.104 0.116 0.184 0.257 0.24 0.422 0.058 0.163 0.086 0.349 0.086 0.559zM21.606 21.873v-0.133c0-0.145-0.013-0.273-0.039-0.383-0.023-0.105-0.064-0.198-0.118-0.281l0.002 0.003c-0.048-0.071-0.111-0.128-0.185-0.167l-0.003-0.001c-0.071-0.037-0.154-0.058-0.243-0.058-0.003 0-0.007 0-0.010 0h0c-0.095 0-0.179 0.019-0.253 0.058-0.076 0.041-0.138 0.098-0.184 0.167l-0.001 0.002c-0.051 0.080-0.091 0.173-0.113 0.272l-0.001 0.006c-0.025 0.109-0.040 0.233-0.040 0.361 0 0.008 0 0.015 0 0.023v-0.001 0.133c0 0.143 0.013 0.271 0.040 0.382 0.026 0.11 0.065 0.204 0.116 0.28 0.048 0.071 0.111 0.129 0.185 0.169l0.003 0.001c0.074 0.039 0.158 0.058 0.253 0.058s0.179-0.019 0.253-0.058c0.076-0.041 0.139-0.099 0.184-0.169l0.001-0.002c0.051-0.080 0.091-0.174 0.113-0.274l0.001-0.006c0.026-0.111 0.040-0.239 0.040-0.382zM24.001 22.458c0-0.002 0-0.004 0-0.006 0-0.045-0.008-0.088-0.023-0.128l0.001 0.003c-0.016-0.044-0.044-0.081-0.078-0.108l-0-0c-0.047-0.039-0.101-0.072-0.159-0.098l-0.004-0.002c-0.073-0.034-0.163-0.068-0.256-0.097l-0.016-0.004c-0.144-0.046-0.261-0.092-0.374-0.143l0.022 0.009c-0.112-0.050-0.208-0.109-0.296-0.177l0.003 0.002c-0.080-0.064-0.147-0.142-0.196-0.23l-0.002-0.004c-0.045-0.086-0.072-0.188-0.072-0.296 0-0.005 0-0.010 0-0.015v0.001c-0-0.003-0-0.006-0-0.009 0-0.11 0.028-0.213 0.077-0.304l-0.002 0.003c0.050-0.094 0.12-0.174 0.21-0.24 0.090-0.068 0.196-0.12 0.319-0.156 0.124-0.036 0.26-0.054 0.407-0.054 0.202 0 0.378 0.036 0.527 0.109 0.15 0.072 0.266 0.172 0.349 0.298 0.084 0.127 0.126 0.271 0.126 0.433h-0.559c0-0.003 0-0.006 0-0.009 0-0.074-0.019-0.143-0.052-0.203l0.001 0.002c-0.034-0.063-0.086-0.112-0.148-0.143l-0.002-0.001c-0.068-0.034-0.148-0.053-0.233-0.053-0.006 0-0.013 0-0.019 0l0.001-0c-0.006-0-0.013-0-0.019-0-0.081 0-0.158 0.017-0.228 0.047l0.004-0.001c-0.061 0.025-0.11 0.066-0.146 0.117l-0.001 0.001c-0.030 0.045-0.049 0.101-0.049 0.161 0 0.001 0 0.003 0 0.004v-0c0 0.046 0.012 0.088 0.034 0.125 0.028 0.042 0.063 0.077 0.104 0.104l0.001 0.001c0.046 0.033 0.103 0.064 0.17 0.092s0.146 0.057 0.235 0.084c0.148 0.045 0.279 0.096 0.392 0.152 0.109 0.053 0.203 0.116 0.286 0.19l-0.001-0.001c0.077 0.070 0.134 0.149 0.173 0.238s0.058 0.189 0.058 0.302c0 0.118-0.023 0.225-0.069 0.319s-0.113 0.173-0.2 0.238-0.192 0.115-0.314 0.148c-0.121 0.034-0.256 0.051-0.406 0.051-0.135 0-0.269-0.018-0.399-0.052-0.136-0.038-0.256-0.093-0.363-0.166l0.004 0.003c-0.105-0.072-0.191-0.165-0.253-0.274l-0.002-0.004c-0.064-0.113-0.096-0.246-0.096-0.399h0.564c0 0.085 0.013 0.157 0.040 0.216 0.025 0.058 0.062 0.105 0.109 0.142l0.001 0.001c0.049 0.036 0.107 0.063 0.17 0.078l0.003 0.001c0.067 0.016 0.141 0.024 0.221 0.024 0.006 0 0.013 0 0.020 0 0.079 0 0.155-0.015 0.224-0.043l-0.004 0.001c0.111-0.045 0.188-0.151 0.188-0.276 0-0.001 0-0.002-0-0.004v0zM26.166 20.442v2.73h-0.56v-2.731h0.561zM27.007 20.442v0.441h-2.227v-0.441h2.227zM29.159 22.733v0.439h-1.453v-0.439h1.453zM27.89 20.442v2.73h-0.563v-2.731h0.563zM28.97 21.555v0.428h-1.263v-0.428h1.263zM29.157 20.442v0.441h-1.451v-0.441h1.451zM29.487 20.442h1.018c0.209 0 0.388 0.032 0.539 0.094s0.268 0.155 0.348 0.277c0.082 0.123 0.122 0.273 0.122 0.452 0 0.147-0.026 0.272-0.075 0.378-0.049 0.105-0.12 0.192-0.206 0.259l-0.002 0.001c-0.090 0.069-0.194 0.124-0.306 0.162l-0.008 0.002-0.178 0.094h-0.885l-0.004-0.439h0.659c0.005 0 0.012 0 0.018 0 0.083 0 0.161-0.020 0.23-0.054l-0.003 0.001c0.063-0.033 0.113-0.083 0.146-0.144l0.001-0.002c0.032-0.061 0.051-0.132 0.051-0.209 0-0.003-0-0.006-0-0.009v0c0-0.004 0-0.008 0-0.012 0-0.078-0.018-0.152-0.051-0.218l0.001 0.003c-0.033-0.064-0.084-0.114-0.147-0.145l-0.002-0.001c-0.068-0.032-0.147-0.052-0.231-0.052-0.006 0-0.013 0-0.019 0l0.001-0h-0.455v2.29h-0.563v-2.731zM31.014 23.172l-0.623-1.217 0.595-0.004 0.63 1.194v0.026h-0.602zM33.967 22.2h-0.696v-0.44h0.696c0.007 0 0.015 0 0.023 0 0.087 0 0.169-0.020 0.243-0.054l-0.003 0.001c0.065-0.034 0.116-0.085 0.148-0.148l0.001-0.002c0.029-0.065 0.046-0.141 0.046-0.221s-0.017-0.156-0.048-0.225l0.001 0.003c-0.032-0.071-0.083-0.129-0.147-0.168l-0.002-0.001c-0.069-0.041-0.153-0.064-0.242-0.064-0.007 0-0.014 0-0.022 0l0.001-0h-0.5v2.29h-0.563v-2.73h1.064c0.214 0 0.397 0.038 0.549 0.116 0.154 0.077 0.271 0.182 0.353 0.317s0.122 0.289 0.122 0.463c0 0.176-0.040 0.328-0.122 0.458-0.081 0.128-0.198 0.228-0.352 0.298s-0.336 0.105-0.55 0.105zM37.21 22.733v0.439h-1.453v-0.439h1.453zM35.941 20.442v2.73h-0.563v-2.731h0.563zM37.021 21.555v0.428h-1.265v-0.428h1.263zM37.208 20.442v0.441h-1.451v-0.441h1.451zM38.797 20.442v2.73h-0.561v-2.731h0.561zM39.636 20.442v0.441h-2.227v-0.441h2.227zM41.789 22.733v0.439h-1.453v-0.439h1.453zM40.52 20.442v2.73h-0.563v-2.731h0.563zM41.6 21.555v0.428h-1.264v-0.428h1.264zM41.788 20.443v0.441h-1.452v-0.441h1.452zM42.117 20.443h1.019c0.209 0 0.388 0.032 0.538 0.094 0.151 0.062 0.268 0.155 0.349 0.277s0.122 0.273 0.122 0.452c0 0.147-0.025 0.272-0.075 0.378-0.049 0.105-0.12 0.192-0.206 0.259l-0.002 0.001c-0.090 0.069-0.194 0.124-0.306 0.162l-0.008 0.002-0.178 0.094h-0.884l-0.004-0.439h0.658c0.006 0 0.012 0 0.019 0 0.083 0 0.161-0.020 0.23-0.054l-0.003 0.001c0.063-0.033 0.113-0.083 0.145-0.144l0.001-0.002c0.032-0.061 0.051-0.132 0.051-0.209 0-0.003-0-0.006-0-0.009v0c0-0.003 0-0.008 0-0.012 0-0.078-0.018-0.153-0.051-0.218l0.001 0.003c-0.033-0.064-0.084-0.114-0.146-0.145l-0.002-0.001c-0.068-0.032-0.147-0.052-0.231-0.052-0.006 0-0.013 0-0.019 0l0.001-0h-0.456v2.29h-0.563v-2.732zM43.644 23.173l-0.622-1.217 0.594-0.004 0.63 1.194v0.026h-0.602zM45.999 22.459c0-0.002 0-0.004 0-0.006 0-0.045-0.008-0.088-0.023-0.128l0.001 0.002c-0.016-0.044-0.044-0.081-0.078-0.108l-0.001-0c-0.047-0.039-0.101-0.072-0.159-0.098l-0.004-0.002c-0.073-0.034-0.163-0.068-0.256-0.097l-0.016-0.004c-0.144-0.046-0.26-0.092-0.374-0.143l0.022 0.009c-0.112-0.050-0.208-0.109-0.296-0.177l0.003 0.002c-0.080-0.064-0.147-0.142-0.196-0.23l-0.002-0.004c-0.045-0.086-0.072-0.188-0.072-0.296 0-0.005 0-0.010 0-0.015v0.001c-0-0.003-0-0.006-0-0.009 0-0.11 0.028-0.213 0.077-0.304l-0.002 0.003c0.051-0.094 0.12-0.174 0.211-0.24 0.090-0.068 0.196-0.12 0.319-0.156s0.259-0.054 0.406-0.054c0.202 0 0.378 0.036 0.527 0.109s0.266 0.172 0.348 0.298c0.084 0.127 0.126 0.271 0.126 0.433h-0.559c0-0.003 0-0.006 0-0.009 0-0.074-0.019-0.143-0.052-0.203l0.001 0.002c-0.034-0.063-0.086-0.112-0.148-0.143l-0.002-0.001c-0.068-0.034-0.148-0.053-0.233-0.053-0.006 0-0.013 0-0.019 0l0.001-0c-0.006-0-0.013-0-0.019-0-0.081 0-0.158 0.017-0.228 0.047l0.004-0.001c-0.061 0.025-0.11 0.066-0.146 0.117l-0.001 0.001c-0.031 0.045-0.049 0.101-0.049 0.161 0 0.001 0 0.003 0 0.004v-0c0 0.046 0.012 0.088 0.034 0.125 0.028 0.042 0.063 0.077 0.104 0.104l0.001 0.001c0.046 0.033 0.103 0.064 0.171 0.092s0.145 0.057 0.234 0.084c0.148 0.045 0.279 0.096 0.392 0.152 0.114 0.056 0.209 0.12 0.285 0.189s0.134 0.149 0.173 0.238 0.058 0.189 0.058 0.302c0 0.118-0.022 0.225-0.069 0.319s-0.113 0.173-0.2 0.238-0.192 0.115-0.314 0.148c-0.121 0.034-0.256 0.051-0.406 0.051-0.135 0-0.269-0.018-0.399-0.052-0.136-0.038-0.256-0.093-0.363-0.166l0.004 0.003c-0.105-0.072-0.191-0.165-0.253-0.274l-0.002-0.004c-0.064-0.113-0.096-0.246-0.096-0.399h0.564c0 0.085 0.013 0.157 0.040 0.216 0.025 0.058 0.063 0.105 0.11 0.142l0.001 0.001c0.049 0.036 0.107 0.063 0.17 0.078l0.003 0.001c0.067 0.016 0.141 0.024 0.221 0.024 0.006 0 0.013 0 0.020 0 0.079 0 0.155-0.015 0.224-0.043l-0.004 0.001c0.111-0.045 0.188-0.151 0.188-0.276 0-0.001 0-0.002-0-0.004v0z"></path>
</svg>
